  0
SECTION
  2
HEADER
  9
$ACADVER
  1
AC1009
  9
$FILLMODE
 70
1
  9
$EXTMIN
 10
0.0000
 20
-0.0762
 30
0.0000
  9
$EXTMAX
 10
67.9450
 20
26.7547
 30
0.0000
  0
ENDSEC
  0
SECTION
  2
TABLES
  0
TABLE
  2
LTYPE
 70
1
  0
LTYPE
  2
CONTINUOUS
 70
64
  3
Solid line
 72
65
 73
0
 40
0
  0
ENDTAB
  0
TABLE
  2
LAYER
 70
255
  0
LAYER
  2
1
 70
64
 62
14
  6
CONTINUOUS
  0
LAYER
  2
16
 70
64
 62
174
  6
CONTINUOUS
  0
LAYER
  2
17
 70
64
 62
94
  6
CONTINUOUS
  0
LAYER
  2
18
 70
64
 62
94
  6
CONTINUOUS
  0
LAYER
  2
20
 70
64
 62
178
  6
CONTINUOUS
  0
LAYER
  2
30
 70
64
 62
251
  6
CONTINUOUS
  0
LAYER
  2
32
 70
64
 62
251
  6
CONTINUOUS
  0
LAYER
  2
34
 70
64
 62
54
  6
CONTINUOUS
  0
LAYER
  2
40
 70
64
 62
174
  6
CONTINUOUS
  0
LAYER
  2
42
 70
64
 62
174
  6
CONTINUOUS
  0
LAYER
  2
44
 70
64
 62
251
  6
CONTINUOUS
  0
LAYER
  2
45
 70
64
 62
251
  6
CONTINUOUS
  0
LAYER
  2
46
 70
64
 62
134
  6
CONTINUOUS
  0
ENDTAB
  0
ENDSEC
  0
SECTION
  2
BLOCKS
  0
BLOCK
  8
0
  2
RECT
 70
64
 10
0.0000
 20
0.0000
 30
0.0000
  3
RECT
  0
SOLID
  8
0
 10
-0.5000
 20
-0.5000
 30
0.0000
 11
0.5000
 21
-0.5000
 31
0.0000
 12
-0.5000
 22
0.5000
 32
0.0000
 13
0.5000
 23
0.5000
 33
0.0000
  0
ENDBLK
  8
0
  0
BLOCK
  8
0
  2
PIE
 70
64
 10
0.0000
 20
0.0000
 30
0.0000
  3
PIE
  0
POLYLINE
  8
0
 66
1
 10
0.0000
 20
0.0000
 30
0.0000
 40
0.5000
 41
0.5000
 70
0
  0
VERTEX
  8
0
 10
0.0000
 20
-0.2500
 30
0.0000
 42
1.0000
  0
VERTEX
  8
0
 10
0.0000
 20
0.2500
 30
0.0000
 42
1.0000
  0
VERTEX
  8
0
 10
0.0000
 20
-0.2500
 30
0.0000
  0
SEQEND
  8
0
  0
ENDBLK
  8
0
  0
BLOCK
  8
0
  2
OCTAGONP
 70
64
 10
0.0000
 20
0.0000
 30
0.0000
  3
OCTAGONP
  0
POLYLINE
  8
0
 66
1
 10
0.0000
 20
0.0000
 30
0.0000
 40
0.5000
 41
0.5000
 70
0
  0
VERTEX
  8
0
 10
-0.2500
 20
-0.1036
 30
0.0000
  0
VERTEX
  8
0
 10
-0.2500
 20
0.1036
 30
0.0000
  0
VERTEX
  8
0
 10
-0.1036
 20
0.2500
 30
0.0000
  0
VERTEX
  8
0
 10
0.1036
 20
0.2500
 30
0.0000
  0
VERTEX
  8
0
 10
0.2500
 20
0.1036
 30
0.0000
  0
VERTEX
  8
0
 10
0.2500
 20
-0.1036
 30
0.0000
  0
VERTEX
  8
0
 10
0.1036
 20
-0.2500
 30
0.0000
  0
VERTEX
  8
0
 10
-0.1036
 20
-0.2500
 30
0.0000
  0
VERTEX
  8
0
 10
-0.2500
 20
-0.1036
 30
0.0000
  0
VERTEX
  8
0
 10
-0.2500
 20
0.1036
 30
0.0000
  0
SEQEND
  8
0
  0
ENDBLK
  8
0
  0
BLOCK
  8
0
  2
SQUAREP
 70
64
 10
0.0000
 20
0.0000
 30
0.0000
  3
SQUAREP
  0
SOLID
  8
0
 10
-0.5000
 20
-0.5000
 30
0.0000
 11
0.5000
 21
-0.5000
 31
0.0000
 12
-0.5000
 22
0.5000
 32
0.0000
 13
0.5000
 23
0.5000
 33
0.0000
  0
ENDBLK
  8
0
  0
BLOCK
  8
0
  2
ROUNDP
 70
64
 10
0.0000
 20
0.0000
 30
0.0000
  3
ROUNDP
  0
POLYLINE
  8
0
 66
1
 10
0.0000
 20
0.0000
 30
0.0000
 40
0.5000
 41
0.5000
 70
0
  0
VERTEX
  8
0
 10
0.0000
 20
-0.2500
 30
0.0000
 42
1.0000
  0
VERTEX
  8
0
 10
0.0000
 20
0.2500
 30
0.0000
 42
1.0000
  0
VERTEX
  8
0
 10
0.0000
 20
-0.2500
 30
0.0000
  0
SEQEND
  8
0
  0
ENDBLK
  8
0
  0
BLOCK
  8
0
  2
ANNULUSP
 70
64
 10
0.0000
 20
0.0000
 30
0.0000
  3
ANNULUSP
  0
POLYLINE
  8
0
 66
1
 10
0.0000
 20
0.0000
 30
0.0000
 40
0.5000
 41
0.5000
 70
0
  0
VERTEX
  8
0
 10
0.0000
 20
-0.2500
 30
0.0000
 42
1.0000
  0
VERTEX
  8
0
 10
0.0000
 20
0.2500
 30
0.0000
 42
1.0000
  0
VERTEX
  8
0
 10
0.0000
 20
-0.2500
 30
0.0000
  0
SEQEND
  8
0
  0
ENDBLK
  8
0
  0
BLOCK
  8
0
  2
THERMALP
 70
64
 10
0.0000
 20
0.0000
 30
0.0000
  3
THERMALP
  0
POLYLINE
  8
0
 66
1
 10
0.0000
 20
0.0000
 30
0.0000
 40
0.1000
 41
0.1000
 70
0
  0
VERTEX
  8
0
 10
-0.2379
 20
0.4500
 30
0.0000
  0
VERTEX
  8
0
 10
0.2379
 20
0.4500
 30
0.0000
  0
SEQEND
  8
0
  0
POLYLINE
  8
0
 66
1
 10
0.0000
 20
0.0000
 30
0.0000
 40
0.0500
 41
0.0500
 70
0
  0
VERTEX
  8
0
 10
0.2379
 20
0.4250
 30
0.0000
 42
1.0000
  0
VERTEX
  8
0
 10
0.2379
 20
0.4750
 30
0.0000
  0
SEQEND
  8
0
  0
POLYLINE
  8
0
 66
1
 10
0.0000
 20
0.0000
 30
0.0000
 40
0.0500
 41
0.0500
 70
0
  0
VERTEX
  8
0
 10
-0.2379
 20
0.4750
 30
0.0000
 42
1.0000
  0
VERTEX
  8
0
 10
-0.2379
 20
0.4250
 30
0.0000
  0
SEQEND
  8
0
  0
POLYLINE
  8
0
 66
1
 10
0.0000
 20
0.0000
 30
0.0000
 40
0.1000
 41
0.1000
 70
0
  0
VERTEX
  8
0
 10
0.4500
 20
0.2379
 30
0.0000
  0
VERTEX
  8
0
 10
0.4500
 20
-0.2379
 30
0.0000
  0
SEQEND
  8
0
  0
POLYLINE
  8
0
 66
1
 10
0.0000
 20
0.0000
 30
0.0000
 40
0.0500
 41
0.0500
 70
0
  0
VERTEX
  8
0
 10
0.4250
 20
-0.2379
 30
0.0000
 42
1.0000
  0
VERTEX
  8
0
 10
0.4750
 20
-0.2379
 30
0.0000
  0
SEQEND
  8
0
  0
POLYLINE
  8
0
 66
1
 10
0.0000
 20
0.0000
 30
0.0000
 40
0.0500
 41
0.0500
 70
0
  0
VERTEX
  8
0
 10
0.4750
 20
0.2379
 30
0.0000
 42
1.0000
  0
VERTEX
  8
0
 10
0.4250
 20
0.2379
 30
0.0000
  0
SEQEND
  8
0
  0
POLYLINE
  8
0
 66
1
 10
0.0000
 20
0.0000
 30
0.0000
 40
0.1000
 41
0.1000
 70
0
  0
VERTEX
  8
0
 10
0.2379
 20
-0.4500
 30
0.0000
  0
VERTEX
  8
0
 10
-0.2379
 20
-0.4500
 30
0.0000
  0
SEQEND
  8
0
  0
POLYLINE
  8
0
 66
1
 10
0.0000
 20
0.0000
 30
0.0000
 40
0.0500
 41
0.0500
 70
0
  0
VERTEX
  8
0
 10
-0.2379
 20
-0.4250
 30
0.0000
 42
1.0000
  0
VERTEX
  8
0
 10
-0.2379
 20
-0.4750
 30
0.0000
  0
SEQEND
  8
0
  0
POLYLINE
  8
0
 66
1
 10
0.0000
 20
0.0000
 30
0.0000
 40
0.0500
 41
0.0500
 70
0
  0
VERTEX
  8
0
 10
0.2379
 20
-0.4750
 30
0.0000
 42
1.0000
  0
VERTEX
  8
0
 10
0.2379
 20
-0.4250
 30
0.0000
  0
SEQEND
  8
0
  0
POLYLINE
  8
0
 66
1
 10
0.0000
 20
0.0000
 30
0.0000
 40
0.1000
 41
0.1000
 70
0
  0
VERTEX
  8
0
 10
-0.4500
 20
-0.2379
 30
0.0000
  0
VERTEX
  8
0
 10
-0.4500
 20
0.2379
 30
0.0000
  0
SEQEND
  8
0
  0
POLYLINE
  8
0
 66
1
 10
0.0000
 20
0.0000
 30
0.0000
 40
0.0500
 41
0.0500
 70
0
  0
VERTEX
  8
0
 10
-0.4250
 20
0.2379
 30
0.0000
 42
1.0000
  0
VERTEX
  8
0
 10
-0.4750
 20
0.2379
 30
0.0000
  0
SEQEND
  8
0
  0
POLYLINE
  8
0
 66
1
 10
0.0000
 20
0.0000
 30
0.0000
 40
0.0500
 41
0.0500
 70
0
  0
VERTEX
  8
0
 10
-0.4750
 20
-0.2379
 30
0.0000
 42
1.0000
  0
VERTEX
  8
0
 10
-0.4250
 20
-0.2379
 30
0.0000
  0
SEQEND
  8
0
  0
ENDBLK
  8
0
  0
BLOCK
  8
0
  2
OCTAGONV
 70
64
 10
0.0000
 20
0.0000
 30
0.0000
  3
OCTAGONV
  0
POLYLINE
  8
0
 66
1
 10
0.0000
 20
0.0000
 30
0.0000
 40
0.5000
 41
0.5000
 70
0
  0
VERTEX
  8
0
 10
-0.2500
 20
-0.1036
 30
0.0000
  0
VERTEX
  8
0
 10
-0.2500
 20
0.1036
 30
0.0000
  0
VERTEX
  8
0
 10
-0.1036
 20
0.2500
 30
0.0000
  0
VERTEX
  8
0
 10
0.1036
 20
0.2500
 30
0.0000
  0
VERTEX
  8
0
 10
0.2500
 20
0.1036
 30
0.0000
  0
VERTEX
  8
0
 10
0.2500
 20
-0.1036
 30
0.0000
  0
VERTEX
  8
0
 10
0.1036
 20
-0.2500
 30
0.0000
  0
VERTEX
  8
0
 10
-0.1036
 20
-0.2500
 30
0.0000
  0
VERTEX
  8
0
 10
-0.2500
 20
-0.1036
 30
0.0000
  0
VERTEX
  8
0
 10
-0.2500
 20
0.1036
 30
0.0000
  0
SEQEND
  8
0
  0
ENDBLK
  8
0
  0
BLOCK
  8
0
  2
SQUAREV
 70
64
 10
0.0000
 20
0.0000
 30
0.0000
  3
SQUAREV
  0
SOLID
  8
0
 10
-0.5000
 20
-0.5000
 30
0.0000
 11
0.5000
 21
-0.5000
 31
0.0000
 12
-0.5000
 22
0.5000
 32
0.0000
 13
0.5000
 23
0.5000
 33
0.0000
  0
ENDBLK
  8
0
  0
BLOCK
  8
0
  2
ROUNDV
 70
64
 10
0.0000
 20
0.0000
 30
0.0000
  3
ROUNDV
  0
POLYLINE
  8
0
 66
1
 10
0.0000
 20
0.0000
 30
0.0000
 40
0.5000
 41
0.5000
 70
0
  0
VERTEX
  8
0
 10
0.0000
 20
-0.2500
 30
0.0000
 42
1.0000
  0
VERTEX
  8
0
 10
0.0000
 20
0.2500
 30
0.0000
 42
1.0000
  0
VERTEX
  8
0
 10
0.0000
 20
-0.2500
 30
0.0000
  0
SEQEND
  8
0
  0
ENDBLK
  8
0
  0
BLOCK
  8
0
  2
ANNULUSV
 70
64
 10
0.0000
 20
0.0000
 30
0.0000
  3
ANNULUSV
  0
POLYLINE
  8
0
 66
1
 10
0.0000
 20
0.0000
 30
0.0000
 40
0.5000
 41
0.5000
 70
0
  0
VERTEX
  8
0
 10
0.0000
 20
-0.2500
 30
0.0000
 42
1.0000
  0
VERTEX
  8
0
 10
0.0000
 20
0.2500
 30
0.0000
 42
1.0000
  0
VERTEX
  8
0
 10
0.0000
 20
-0.2500
 30
0.0000
  0
SEQEND
  8
0
  0
ENDBLK
  8
0
  0
BLOCK
  8
0
  2
THERMALV
 70
64
 10
0.0000
 20
0.0000
 30
0.0000
  3
THERMALV
  0
POLYLINE
  8
0
 66
1
 10
0.0000
 20
0.0000
 30
0.0000
 40
0.1000
 41
0.1000
 70
0
  0
VERTEX
  8
0
 10
-0.2379
 20
0.4500
 30
0.0000
  0
VERTEX
  8
0
 10
0.2379
 20
0.4500
 30
0.0000
  0
SEQEND
  8
0
  0
POLYLINE
  8
0
 66
1
 10
0.0000
 20
0.0000
 30
0.0000
 40
0.0500
 41
0.0500
 70
0
  0
VERTEX
  8
0
 10
0.2379
 20
0.4250
 30
0.0000
 42
1.0000
  0
VERTEX
  8
0
 10
0.2379
 20
0.4750
 30
0.0000
  0
SEQEND
  8
0
  0
POLYLINE
  8
0
 66
1
 10
0.0000
 20
0.0000
 30
0.0000
 40
0.0500
 41
0.0500
 70
0
  0
VERTEX
  8
0
 10
-0.2379
 20
0.4750
 30
0.0000
 42
1.0000
  0
VERTEX
  8
0
 10
-0.2379
 20
0.4250
 30
0.0000
  0
SEQEND
  8
0
  0
POLYLINE
  8
0
 66
1
 10
0.0000
 20
0.0000
 30
0.0000
 40
0.1000
 41
0.1000
 70
0
  0
VERTEX
  8
0
 10
0.4500
 20
0.2379
 30
0.0000
  0
VERTEX
  8
0
 10
0.4500
 20
-0.2379
 30
0.0000
  0
SEQEND
  8
0
  0
POLYLINE
  8
0
 66
1
 10
0.0000
 20
0.0000
 30
0.0000
 40
0.0500
 41
0.0500
 70
0
  0
VERTEX
  8
0
 10
0.4250
 20
-0.2379
 30
0.0000
 42
1.0000
  0
VERTEX
  8
0
 10
0.4750
 20
-0.2379
 30
0.0000
  0
SEQEND
  8
0
  0
POLYLINE
  8
0
 66
1
 10
0.0000
 20
0.0000
 30
0.0000
 40
0.0500
 41
0.0500
 70
0
  0
VERTEX
  8
0
 10
0.4750
 20
0.2379
 30
0.0000
 42
1.0000
  0
VERTEX
  8
0
 10
0.4250
 20
0.2379
 30
0.0000
  0
SEQEND
  8
0
  0
POLYLINE
  8
0
 66
1
 10
0.0000
 20
0.0000
 30
0.0000
 40
0.1000
 41
0.1000
 70
0
  0
VERTEX
  8
0
 10
0.2379
 20
-0.4500
 30
0.0000
  0
VERTEX
  8
0
 10
-0.2379
 20
-0.4500
 30
0.0000
  0
SEQEND
  8
0
  0
POLYLINE
  8
0
 66
1
 10
0.0000
 20
0.0000
 30
0.0000
 40
0.0500
 41
0.0500
 70
0
  0
VERTEX
  8
0
 10
-0.2379
 20
-0.4250
 30
0.0000
 42
1.0000
  0
VERTEX
  8
0
 10
-0.2379
 20
-0.4750
 30
0.0000
  0
SEQEND
  8
0
  0
POLYLINE
  8
0
 66
1
 10
0.0000
 20
0.0000
 30
0.0000
 40
0.0500
 41
0.0500
 70
0
  0
VERTEX
  8
0
 10
0.2379
 20
-0.4750
 30
0.0000
 42
1.0000
  0
VERTEX
  8
0
 10
0.2379
 20
-0.4250
 30
0.0000
  0
SEQEND
  8
0
  0
POLYLINE
  8
0
 66
1
 10
0.0000
 20
0.0000
 30
0.0000
 40
0.1000
 41
0.1000
 70
0
  0
VERTEX
  8
0
 10
-0.4500
 20
-0.2379
 30
0.0000
  0
VERTEX
  8
0
 10
-0.4500
 20
0.2379
 30
0.0000
  0
SEQEND
  8
0
  0
POLYLINE
  8
0
 66
1
 10
0.0000
 20
0.0000
 30
0.0000
 40
0.0500
 41
0.0500
 70
0
  0
VERTEX
  8
0
 10
-0.4250
 20
0.2379
 30
0.0000
 42
1.0000
  0
VERTEX
  8
0
 10
-0.4750
 20
0.2379
 30
0.0000
  0
SEQEND
  8
0
  0
POLYLINE
  8
0
 66
1
 10
0.0000
 20
0.0000
 30
0.0000
 40
0.0500
 41
0.0500
 70
0
  0
VERTEX
  8
0
 10
-0.4750
 20
-0.2379
 30
0.0000
 42
1.0000
  0
VERTEX
  8
0
 10
-0.4250
 20
-0.2379
 30
0.0000
  0
SEQEND
  8
0
  0
ENDBLK
  8
0
  0
BLOCK
  8
0
  2
LONGP100
 70
64
 10
0.0000
 20
0.0000
 30
0.0000
  3
LONGP100
  0
POLYLINE
  8
0
 66
1
 10
0.0000
 20
0.0000
 30
0.0000
 40
1.0000
 41
1.0000
 70
0
  0
VERTEX
  8
0
 10
-0.5000
 20
0.0000
 30
0.0000
  0
VERTEX
  8
0
 10
0.5000
 20
0.0000
 30
0.0000
  0
SEQEND
  8
0
  0
POLYLINE
  8
0
 66
1
 10
0.0000
 20
0.0000
 30
0.0000
 40
0.5000
 41
0.5000
 70
0
  0
VERTEX
  8
0
 10
0.5000
 20
-0.2500
 30
0.0000
 42
1.0000
  0
VERTEX
  8
0
 10
0.5000
 20
0.2500
 30
0.0000
  0
SEQEND
  8
0
  0
POLYLINE
  8
0
 66
1
 10
0.0000
 20
0.0000
 30
0.0000
 40
0.5000
 41
0.5000
 70
0
  0
VERTEX
  8
0
 10
-0.5000
 20
0.2500
 30
0.0000
 42
1.0000
  0
VERTEX
  8
0
 10
-0.5000
 20
-0.2500
 30
0.0000
  0
SEQEND
  8
0
  0
ENDBLK
  8
0
  0
ENDSEC
  0
SECTION
  2
ENTITIES
  0
LINE
  8
20
 10
0.0000
 20
0.0000
 30
0.0000
 11
67.9450
 21
0.0000
 31
0.0000
  0
LINE
  8
20
 10
67.9450
 20
0.0000
 30
0.0000
 11
67.9450
 21
25.4000
 31
0.0000
  0
LINE
  8
20
 10
67.9450
 20
25.4000
 30
0.0000
 11
0.0000
 21
25.4000
 31
0.0000
  0
LINE
  8
20
 10
0.0000
 20
25.4000
 30
0.0000
 11
0.0000
 21
0.0000
 31
0.0000
  0
INSERT
  8
17
  2
ROUNDP
 10
12.4460
 20
13.6795
 30
0.0000
 41
5.7160
 42
5.7160
 43
1.0000
 50
0.0000
  0
INSERT
  8
17
  2
ROUNDP
 10
12.4460
 20
13.6795
 30
0.0000
 41
5.7160
 42
5.7160
 43
1.0000
 50
0.0000
  0
INSERT
  8
30
  2
ROUNDP
 10
12.4460
 20
13.6795
 30
0.0000
 41
5.9192
 42
5.9192
 43
1.0000
 50
0.0000
  0
CIRCLE
  8
44
 10
12.4460
 20
13.6795
 30
0.0000
 40
2.3500
  0
INSERT
  8
17
  2
ROUNDP
 10
12.4460
 20
20.6170
 30
0.0000
 41
5.7160
 42
5.7160
 43
1.0000
 50
0.0000
  0
INSERT
  8
17
  2
ROUNDP
 10
12.4460
 20
20.6170
 30
0.0000
 41
5.7160
 42
5.7160
 43
1.0000
 50
0.0000
  0
INSERT
  8
30
  2
ROUNDP
 10
12.4460
 20
20.6170
 30
0.0000
 41
5.9192
 42
5.9192
 43
1.0000
 50
0.0000
  0
CIRCLE
  8
44
 10
12.4460
 20
20.6170
 30
0.0000
 40
2.3500
  0
INSERT
  8
17
  2
ROUNDP
 10
30.2260
 20
13.6795
 30
0.0000
 41
5.7160
 42
5.7160
 43
1.0000
 50
0.0000
  0
INSERT
  8
17
  2
ROUNDP
 10
30.2260
 20
13.6795
 30
0.0000
 41
5.7160
 42
5.7160
 43
1.0000
 50
0.0000
  0
INSERT
  8
30
  2
ROUNDP
 10
30.2260
 20
13.6795
 30
0.0000
 41
5.9192
 42
5.9192
 43
1.0000
 50
0.0000
  0
CIRCLE
  8
44
 10
30.2260
 20
13.6795
 30
0.0000
 40
2.3500
  0
INSERT
  8
17
  2
ROUNDP
 10
30.2260
 20
20.6170
 30
0.0000
 41
5.7160
 42
5.7160
 43
1.0000
 50
0.0000
  0
INSERT
  8
17
  2
ROUNDP
 10
30.2260
 20
20.6170
 30
0.0000
 41
5.7160
 42
5.7160
 43
1.0000
 50
0.0000
  0
INSERT
  8
30
  2
ROUNDP
 10
30.2260
 20
20.6170
 30
0.0000
 41
5.9192
 42
5.9192
 43
1.0000
 50
0.0000
  0
CIRCLE
  8
44
 10
30.2260
 20
20.6170
 30
0.0000
 40
2.3500
  0
INSERT
  8
17
  2
ROUNDP
 10
21.3360
 20
13.6795
 30
0.0000
 41
5.7160
 42
5.7160
 43
1.0000
 50
0.0000
  0
INSERT
  8
17
  2
ROUNDP
 10
21.3360
 20
13.6795
 30
0.0000
 41
5.7160
 42
5.7160
 43
1.0000
 50
0.0000
  0
INSERT
  8
30
  2
ROUNDP
 10
21.3360
 20
13.6795
 30
0.0000
 41
5.9192
 42
5.9192
 43
1.0000
 50
0.0000
  0
CIRCLE
  8
44
 10
21.3360
 20
13.6795
 30
0.0000
 40
2.3500
  0
INSERT
  8
17
  2
ROUNDP
 10
21.3360
 20
20.6170
 30
0.0000
 41
5.7160
 42
5.7160
 43
1.0000
 50
0.0000
  0
INSERT
  8
17
  2
ROUNDP
 10
21.3360
 20
20.6170
 30
0.0000
 41
5.7160
 42
5.7160
 43
1.0000
 50
0.0000
  0
INSERT
  8
30
  2
ROUNDP
 10
21.3360
 20
20.6170
 30
0.0000
 41
5.9192
 42
5.9192
 43
1.0000
 50
0.0000
  0
CIRCLE
  8
44
 10
21.3360
 20
20.6170
 30
0.0000
 40
2.3500
  0
POLYLINE
  8
40
 66
1
 10
0.0000
 20
0.0000
 30
0.0000
 40
2.0320
 41
2.0320
 70
0
  0
VERTEX
  8
40
 10
4.1910
 20
1.3970
 30
0.0000
 42
1.0000
  0
VERTEX
  8
40
 10
4.1910
 20
7.4930
 30
0.0000
 42
1.0000
  0
VERTEX
  8
40
 10
4.1910
 20
1.3970
 30
0.0000
  0
SEQEND
  8
0
  0
POLYLINE
  8
42
 66
1
 10
0.0000
 20
0.0000
 30
0.0000
 40
2.0320
 41
2.0320
 70
0
  0
VERTEX
  8
42
 10
4.1910
 20
1.3970
 30
0.0000
 42
1.0000
  0
VERTEX
  8
42
 10
4.1910
 20
7.4930
 30
0.0000
 42
1.0000
  0
VERTEX
  8
42
 10
4.1910
 20
1.3970
 30
0.0000
  0
SEQEND
  8
0
  0
CIRCLE
  8
20
 10
4.1910
 20
4.4450
 30
0.0000
 40
1.5000
  0
POLYLINE
  8
30
 66
1
 10
0.0000
 20
0.0000
 30
0.0000
 40
1.6016
 41
1.6016
 70
0
  0
VERTEX
  8
30
 10
4.1910
 20
3.6442
 30
0.0000
 42
1.0000
  0
VERTEX
  8
30
 10
4.1910
 20
5.2458
 30
0.0000
 42
1.0000
  0
VERTEX
  8
30
 10
4.1910
 20
3.6442
 30
0.0000
  0
SEQEND
  8
0
  0
POLYLINE
  8
40
 66
1
 10
0.0000
 20
0.0000
 30
0.0000
 40
2.0320
 41
2.0320
 70
0
  0
VERTEX
  8
40
 10
63.8810
 20
1.3970
 30
0.0000
 42
1.0000
  0
VERTEX
  8
40
 10
63.8810
 20
7.4930
 30
0.0000
 42
1.0000
  0
VERTEX
  8
40
 10
63.8810
 20
1.3970
 30
0.0000
  0
SEQEND
  8
0
  0
POLYLINE
  8
42
 66
1
 10
0.0000
 20
0.0000
 30
0.0000
 40
2.0320
 41
2.0320
 70
0
  0
VERTEX
  8
42
 10
63.8810
 20
1.3970
 30
0.0000
 42
1.0000
  0
VERTEX
  8
42
 10
63.8810
 20
7.4930
 30
0.0000
 42
1.0000
  0
VERTEX
  8
42
 10
63.8810
 20
1.3970
 30
0.0000
  0
SEQEND
  8
0
  0
CIRCLE
  8
20
 10
63.8810
 20
4.4450
 30
0.0000
 40
1.5000
  0
POLYLINE
  8
30
 66
1
 10
0.0000
 20
0.0000
 30
0.0000
 40
1.6016
 41
1.6016
 70
0
  0
VERTEX
  8
30
 10
63.8810
 20
3.6442
 30
0.0000
 42
1.0000
  0
VERTEX
  8
30
 10
63.8810
 20
5.2458
 30
0.0000
 42
1.0000
  0
VERTEX
  8
30
 10
63.8810
 20
3.6442
 30
0.0000
  0
SEQEND
  8
0
  0
POLYLINE
  8
40
 66
1
 10
0.0000
 20
0.0000
 30
0.0000
 40
2.0320
 41
2.0320
 70
0
  0
VERTEX
  8
40
 10
4.1910
 20
17.9070
 30
0.0000
 42
1.0000
  0
VERTEX
  8
40
 10
4.1910
 20
24.0030
 30
0.0000
 42
1.0000
  0
VERTEX
  8
40
 10
4.1910
 20
17.9070
 30
0.0000
  0
SEQEND
  8
0
  0
POLYLINE
  8
42
 66
1
 10
0.0000
 20
0.0000
 30
0.0000
 40
2.0320
 41
2.0320
 70
0
  0
VERTEX
  8
42
 10
4.1910
 20
17.9070
 30
0.0000
 42
1.0000
  0
VERTEX
  8
42
 10
4.1910
 20
24.0030
 30
0.0000
 42
1.0000
  0
VERTEX
  8
42
 10
4.1910
 20
17.9070
 30
0.0000
  0
SEQEND
  8
0
  0
CIRCLE
  8
20
 10
4.1910
 20
20.9550
 30
0.0000
 40
1.5000
  0
POLYLINE
  8
30
 66
1
 10
0.0000
 20
0.0000
 30
0.0000
 40
1.6016
 41
1.6016
 70
0
  0
VERTEX
  8
30
 10
4.1910
 20
20.1542
 30
0.0000
 42
1.0000
  0
VERTEX
  8
30
 10
4.1910
 20
21.7558
 30
0.0000
 42
1.0000
  0
VERTEX
  8
30
 10
4.1910
 20
20.1542
 30
0.0000
  0
SEQEND
  8
0
  0
POLYLINE
  8
40
 66
1
 10
0.0000
 20
0.0000
 30
0.0000
 40
2.0320
 41
2.0320
 70
0
  0
VERTEX
  8
40
 10
63.8810
 20
17.9070
 30
0.0000
 42
1.0000
  0
VERTEX
  8
40
 10
63.8810
 20
24.0030
 30
0.0000
 42
1.0000
  0
VERTEX
  8
40
 10
63.8810
 20
17.9070
 30
0.0000
  0
SEQEND
  8
0
  0
POLYLINE
  8
42
 66
1
 10
0.0000
 20
0.0000
 30
0.0000
 40
2.0320
 41
2.0320
 70
0
  0
VERTEX
  8
42
 10
63.8810
 20
17.9070
 30
0.0000
 42
1.0000
  0
VERTEX
  8
42
 10
63.8810
 20
24.0030
 30
0.0000
 42
1.0000
  0
VERTEX
  8
42
 10
63.8810
 20
17.9070
 30
0.0000
  0
SEQEND
  8
0
  0
CIRCLE
  8
20
 10
63.8810
 20
20.9550
 30
0.0000
 40
1.5000
  0
POLYLINE
  8
30
 66
1
 10
0.0000
 20
0.0000
 30
0.0000
 40
1.6016
 41
1.6016
 70
0
  0
VERTEX
  8
30
 10
63.8810
 20
20.1542
 30
0.0000
 42
1.0000
  0
VERTEX
  8
30
 10
63.8810
 20
21.7558
 30
0.0000
 42
1.0000
  0
VERTEX
  8
30
 10
63.8810
 20
20.1542
 30
0.0000
  0
SEQEND
  8
0
  0
INSERT
  8
17
  2
LONGP100
 10
11.2014
 20
3.5560
 30
0.0000
 41
1.9812
 42
1.9812
 43
1.0000
 50
90.0000
  0
INSERT
  8
17
  2
LONGP100
 10
11.2014
 20
3.5560
 30
0.0000
 41
1.9812
 42
1.9812
 43
1.0000
 50
90.0000
  0
INSERT
  8
30
  2
LONGP100
 10
11.2014
 20
3.5560
 30
0.0000
 41
2.1844
 42
2.1844
 43
1.0000
 50
90.0000
  0
CIRCLE
  8
44
 10
11.2014
 20
3.5560
 30
0.0000
 40
0.6604
  0
INSERT
  8
17
  2
LONGP100
 10
16.2306
 20
3.5560
 30
0.0000
 41
1.9812
 42
1.9812
 43
1.0000
 50
90.0000
  0
INSERT
  8
17
  2
LONGP100
 10
16.2306
 20
3.5560
 30
0.0000
 41
1.9812
 42
1.9812
 43
1.0000
 50
90.0000
  0
INSERT
  8
30
  2
LONGP100
 10
16.2306
 20
3.5560
 30
0.0000
 41
2.1844
 42
2.1844
 43
1.0000
 50
90.0000
  0
CIRCLE
  8
44
 10
16.2306
 20
3.5560
 30
0.0000
 40
0.6604
  0
INSERT
  8
17
  2
LONGP100
 10
21.3614
 20
3.5560
 30
0.0000
 41
1.9812
 42
1.9812
 43
1.0000
 50
90.0000
  0
INSERT
  8
17
  2
LONGP100
 10
21.3614
 20
3.5560
 30
0.0000
 41
1.9812
 42
1.9812
 43
1.0000
 50
90.0000
  0
INSERT
  8
30
  2
LONGP100
 10
21.3614
 20
3.5560
 30
0.0000
 41
2.1844
 42
2.1844
 43
1.0000
 50
90.0000
  0
CIRCLE
  8
44
 10
21.3614
 20
3.5560
 30
0.0000
 40
0.6604
  0
INSERT
  8
17
  2
LONGP100
 10
26.3906
 20
3.5560
 30
0.0000
 41
1.9812
 42
1.9812
 43
1.0000
 50
90.0000
  0
INSERT
  8
17
  2
LONGP100
 10
26.3906
 20
3.5560
 30
0.0000
 41
1.9812
 42
1.9812
 43
1.0000
 50
90.0000
  0
INSERT
  8
30
  2
LONGP100
 10
26.3906
 20
3.5560
 30
0.0000
 41
2.1844
 42
2.1844
 43
1.0000
 50
90.0000
  0
CIRCLE
  8
44
 10
26.3906
 20
3.5560
 30
0.0000
 40
0.6604
  0
INSERT
  8
17
  2
LONGP100
 10
31.5214
 20
3.5560
 30
0.0000
 41
1.9812
 42
1.9812
 43
1.0000
 50
90.0000
  0
INSERT
  8
17
  2
LONGP100
 10
31.5214
 20
3.5560
 30
0.0000
 41
1.9812
 42
1.9812
 43
1.0000
 50
90.0000
  0
INSERT
  8
30
  2
LONGP100
 10
31.5214
 20
3.5560
 30
0.0000
 41
2.1844
 42
2.1844
 43
1.0000
 50
90.0000
  0
CIRCLE
  8
44
 10
31.5214
 20
3.5560
 30
0.0000
 40
0.6604
  0
INSERT
  8
17
  2
LONGP100
 10
36.5506
 20
3.5560
 30
0.0000
 41
1.9812
 42
1.9812
 43
1.0000
 50
90.0000
  0
INSERT
  8
17
  2
LONGP100
 10
36.5506
 20
3.5560
 30
0.0000
 41
1.9812
 42
1.9812
 43
1.0000
 50
90.0000
  0
INSERT
  8
30
  2
LONGP100
 10
36.5506
 20
3.5560
 30
0.0000
 41
2.1844
 42
2.1844
 43
1.0000
 50
90.0000
  0
CIRCLE
  8
44
 10
36.5506
 20
3.5560
 30
0.0000
 40
0.6604
  0
INSERT
  8
17
  2
LONGP100
 10
41.6814
 20
3.5560
 30
0.0000
 41
1.9812
 42
1.9812
 43
1.0000
 50
90.0000
  0
INSERT
  8
17
  2
LONGP100
 10
41.6814
 20
3.5560
 30
0.0000
 41
1.9812
 42
1.9812
 43
1.0000
 50
90.0000
  0
INSERT
  8
30
  2
LONGP100
 10
41.6814
 20
3.5560
 30
0.0000
 41
2.1844
 42
2.1844
 43
1.0000
 50
90.0000
  0
CIRCLE
  8
44
 10
41.6814
 20
3.5560
 30
0.0000
 40
0.6604
  0
INSERT
  8
17
  2
LONGP100
 10
46.7106
 20
3.5560
 30
0.0000
 41
1.9812
 42
1.9812
 43
1.0000
 50
90.0000
  0
INSERT
  8
17
  2
LONGP100
 10
46.7106
 20
3.5560
 30
0.0000
 41
1.9812
 42
1.9812
 43
1.0000
 50
90.0000
  0
INSERT
  8
30
  2
LONGP100
 10
46.7106
 20
3.5560
 30
0.0000
 41
2.1844
 42
2.1844
 43
1.0000
 50
90.0000
  0
CIRCLE
  8
44
 10
46.7106
 20
3.5560
 30
0.0000
 40
0.6604
  0
INSERT
  8
17
  2
LONGP100
 10
51.8414
 20
3.5560
 30
0.0000
 41
1.9812
 42
1.9812
 43
1.0000
 50
90.0000
  0
INSERT
  8
17
  2
LONGP100
 10
51.8414
 20
3.5560
 30
0.0000
 41
1.9812
 42
1.9812
 43
1.0000
 50
90.0000
  0
INSERT
  8
30
  2
LONGP100
 10
51.8414
 20
3.5560
 30
0.0000
 41
2.1844
 42
2.1844
 43
1.0000
 50
90.0000
  0
CIRCLE
  8
44
 10
51.8414
 20
3.5560
 30
0.0000
 40
0.6604
  0
INSERT
  8
17
  2
LONGP100
 10
56.8706
 20
3.5560
 30
0.0000
 41
1.9812
 42
1.9812
 43
1.0000
 50
90.0000
  0
INSERT
  8
17
  2
LONGP100
 10
56.8706
 20
3.5560
 30
0.0000
 41
1.9812
 42
1.9812
 43
1.0000
 50
90.0000
  0
INSERT
  8
30
  2
LONGP100
 10
56.8706
 20
3.5560
 30
0.0000
 41
2.1844
 42
2.1844
 43
1.0000
 50
90.0000
  0
CIRCLE
  8
44
 10
56.8706
 20
3.5560
 30
0.0000
 40
0.6604
  0
INSERT
  8
17
  2
LONGP100
 10
42.9260
 20
22.2250
 30
0.0000
 41
1.5240
 42
1.5240
 43
1.0000
 50
0.0000
  0
INSERT
  8
17
  2
LONGP100
 10
42.9260
 20
22.2250
 30
0.0000
 41
1.5240
 42
1.5240
 43
1.0000
 50
0.0000
  0
INSERT
  8
30
  2
LONGP100
 10
42.9260
 20
22.2250
 30
0.0000
 41
1.7272
 42
1.7272
 43
1.0000
 50
0.0000
  0
CIRCLE
  8
44
 10
42.9260
 20
22.2250
 30
0.0000
 40
0.5080
  0
INSERT
  8
17
  2
LONGP100
 10
42.9260
 20
19.6850
 30
0.0000
 41
1.5240
 42
1.5240
 43
1.0000
 50
0.0000
  0
INSERT
  8
17
  2
LONGP100
 10
42.9260
 20
19.6850
 30
0.0000
 41
1.5240
 42
1.5240
 43
1.0000
 50
0.0000
  0
INSERT
  8
30
  2
LONGP100
 10
42.9260
 20
19.6850
 30
0.0000
 41
1.7272
 42
1.7272
 43
1.0000
 50
0.0000
  0
CIRCLE
  8
44
 10
42.9260
 20
19.6850
 30
0.0000
 40
0.5080
  0
INSERT
  8
17
  2
LONGP100
 10
42.9260
 20
17.1450
 30
0.0000
 41
1.5240
 42
1.5240
 43
1.0000
 50
0.0000
  0
INSERT
  8
17
  2
LONGP100
 10
42.9260
 20
17.1450
 30
0.0000
 41
1.5240
 42
1.5240
 43
1.0000
 50
0.0000
  0
INSERT
  8
30
  2
LONGP100
 10
42.9260
 20
17.1450
 30
0.0000
 41
1.7272
 42
1.7272
 43
1.0000
 50
0.0000
  0
CIRCLE
  8
44
 10
42.9260
 20
17.1450
 30
0.0000
 40
0.5080
  0
INSERT
  8
17
  2
LONGP100
 10
42.9260
 20
14.6050
 30
0.0000
 41
1.5240
 42
1.5240
 43
1.0000
 50
0.0000
  0
INSERT
  8
17
  2
LONGP100
 10
42.9260
 20
14.6050
 30
0.0000
 41
1.5240
 42
1.5240
 43
1.0000
 50
0.0000
  0
INSERT
  8
30
  2
LONGP100
 10
42.9260
 20
14.6050
 30
0.0000
 41
1.7272
 42
1.7272
 43
1.0000
 50
0.0000
  0
CIRCLE
  8
44
 10
42.9260
 20
14.6050
 30
0.0000
 40
0.5080
  0
INSERT
  8
17
  2
LONGP100
 10
49.9110
 20
22.2250
 30
0.0000
 41
1.5240
 42
1.5240
 43
1.0000
 50
0.0000
  0
INSERT
  8
17
  2
LONGP100
 10
49.9110
 20
22.2250
 30
0.0000
 41
1.5240
 42
1.5240
 43
1.0000
 50
0.0000
  0
INSERT
  8
30
  2
LONGP100
 10
49.9110
 20
22.2250
 30
0.0000
 41
1.7272
 42
1.7272
 43
1.0000
 50
0.0000
  0
CIRCLE
  8
44
 10
49.9110
 20
22.2250
 30
0.0000
 40
0.5080
  0
INSERT
  8
17
  2
LONGP100
 10
49.9110
 20
19.6850
 30
0.0000
 41
1.5240
 42
1.5240
 43
1.0000
 50
0.0000
  0
INSERT
  8
17
  2
LONGP100
 10
49.9110
 20
19.6850
 30
0.0000
 41
1.5240
 42
1.5240
 43
1.0000
 50
0.0000
  0
INSERT
  8
30
  2
LONGP100
 10
49.9110
 20
19.6850
 30
0.0000
 41
1.7272
 42
1.7272
 43
1.0000
 50
0.0000
  0
CIRCLE
  8
44
 10
49.9110
 20
19.6850
 30
0.0000
 40
0.5080
  0
INSERT
  8
17
  2
LONGP100
 10
49.9110
 20
17.1450
 30
0.0000
 41
1.5240
 42
1.5240
 43
1.0000
 50
0.0000
  0
INSERT
  8
17
  2
LONGP100
 10
49.9110
 20
17.1450
 30
0.0000
 41
1.5240
 42
1.5240
 43
1.0000
 50
0.0000
  0
INSERT
  8
30
  2
LONGP100
 10
49.9110
 20
17.1450
 30
0.0000
 41
1.7272
 42
1.7272
 43
1.0000
 50
0.0000
  0
CIRCLE
  8
44
 10
49.9110
 20
17.1450
 30
0.0000
 40
0.5080
  0
INSERT
  8
17
  2
LONGP100
 10
49.9110
 20
14.6050
 30
0.0000
 41
1.5240
 42
1.5240
 43
1.0000
 50
0.0000
  0
INSERT
  8
17
  2
LONGP100
 10
49.9110
 20
14.6050
 30
0.0000
 41
1.5240
 42
1.5240
 43
1.0000
 50
0.0000
  0
INSERT
  8
30
  2
LONGP100
 10
49.9110
 20
14.6050
 30
0.0000
 41
1.7272
 42
1.7272
 43
1.0000
 50
0.0000
  0
CIRCLE
  8
44
 10
49.9110
 20
14.6050
 30
0.0000
 40
0.5080
  0
INSERT
  8
17
  2
LONGP100
 10
56.8960
 20
22.2250
 30
0.0000
 41
1.5240
 42
1.5240
 43
1.0000
 50
0.0000
  0
INSERT
  8
17
  2
LONGP100
 10
56.8960
 20
22.2250
 30
0.0000
 41
1.5240
 42
1.5240
 43
1.0000
 50
0.0000
  0
INSERT
  8
30
  2
LONGP100
 10
56.8960
 20
22.2250
 30
0.0000
 41
1.7272
 42
1.7272
 43
1.0000
 50
0.0000
  0
CIRCLE
  8
44
 10
56.8960
 20
22.2250
 30
0.0000
 40
0.5080
  0
INSERT
  8
17
  2
LONGP100
 10
56.8960
 20
19.6850
 30
0.0000
 41
1.5240
 42
1.5240
 43
1.0000
 50
0.0000
  0
INSERT
  8
17
  2
LONGP100
 10
56.8960
 20
19.6850
 30
0.0000
 41
1.5240
 42
1.5240
 43
1.0000
 50
0.0000
  0
INSERT
  8
30
  2
LONGP100
 10
56.8960
 20
19.6850
 30
0.0000
 41
1.7272
 42
1.7272
 43
1.0000
 50
0.0000
  0
CIRCLE
  8
44
 10
56.8960
 20
19.6850
 30
0.0000
 40
0.5080
  0
INSERT
  8
17
  2
LONGP100
 10
56.8960
 20
17.1450
 30
0.0000
 41
1.5240
 42
1.5240
 43
1.0000
 50
0.0000
  0
INSERT
  8
17
  2
LONGP100
 10
56.8960
 20
17.1450
 30
0.0000
 41
1.5240
 42
1.5240
 43
1.0000
 50
0.0000
  0
INSERT
  8
30
  2
LONGP100
 10
56.8960
 20
17.1450
 30
0.0000
 41
1.7272
 42
1.7272
 43
1.0000
 50
0.0000
  0
CIRCLE
  8
44
 10
56.8960
 20
17.1450
 30
0.0000
 40
0.5080
  0
INSERT
  8
17
  2
LONGP100
 10
56.8960
 20
14.6050
 30
0.0000
 41
1.5240
 42
1.5240
 43
1.0000
 50
0.0000
  0
INSERT
  8
17
  2
LONGP100
 10
56.8960
 20
14.6050
 30
0.0000
 41
1.5240
 42
1.5240
 43
1.0000
 50
0.0000
  0
INSERT
  8
30
  2
LONGP100
 10
56.8960
 20
14.6050
 30
0.0000
 41
1.7272
 42
1.7272
 43
1.0000
 50
0.0000
  0
CIRCLE
  8
44
 10
56.8960
 20
14.6050
 30
0.0000
 40
0.5080
  0
POLYLINE
  8
16
 66
1
 10
0.0000
 20
0.0000
 30
0.0000
 40
3.8100
 41
3.8100
 70
0
  0
VERTEX
  8
16
 10
46.7106
 20
3.5560
 30
0.0000
  0
VERTEX
  8
16
 10
51.8414
 20
3.5560
 30
0.0000
  0
SEQEND
  8
0
  0
POLYLINE
  8
16
 66
1
 10
0.0000
 20
0.0000
 30
0.0000
 40
1.9050
 41
1.9050
 70
0
  0
VERTEX
  8
16
 10
51.8414
 20
2.6035
 30
0.0000
 42
1.0000
  0
VERTEX
  8
16
 10
51.8414
 20
4.5085
 30
0.0000
  0
SEQEND
  8
0
  0
POLYLINE
  8
16
 66
1
 10
0.0000
 20
0.0000
 30
0.0000
 40
1.9050
 41
1.9050
 70
0
  0
VERTEX
  8
16
 10
46.7106
 20
4.5085
 30
0.0000
 42
1.0000
  0
VERTEX
  8
16
 10
46.7106
 20
2.6035
 30
0.0000
  0
SEQEND
  8
0
  0
POLYLINE
  8
16
 66
1
 10
0.0000
 20
0.0000
 30
0.0000
 40
3.8100
 41
3.8100
 70
0
  0
VERTEX
  8
16
 10
51.8414
 20
3.5560
 30
0.0000
  0
VERTEX
  8
16
 10
56.8706
 20
3.5560
 30
0.0000
  0
SEQEND
  8
0
  0
POLYLINE
  8
16
 66
1
 10
0.0000
 20
0.0000
 30
0.0000
 40
1.9050
 41
1.9050
 70
0
  0
VERTEX
  8
16
 10
56.8706
 20
2.6035
 30
0.0000
 42
1.0000
  0
VERTEX
  8
16
 10
56.8706
 20
4.5085
 30
0.0000
  0
SEQEND
  8
0
  0
POLYLINE
  8
16
 66
1
 10
0.0000
 20
0.0000
 30
0.0000
 40
1.9050
 41
1.9050
 70
0
  0
VERTEX
  8
16
 10
51.8414
 20
4.5085
 30
0.0000
 42
1.0000
  0
VERTEX
  8
16
 10
51.8414
 20
2.6035
 30
0.0000
  0
SEQEND
  8
0
  0
POLYLINE
  8
16
 66
1
 10
0.0000
 20
0.0000
 30
0.0000
 40
5.7150
 41
5.7150
 70
0
  0
VERTEX
  8
16
 10
12.4460
 20
20.6170
 30
0.0000
  0
VERTEX
  8
16
 10
21.3360
 20
20.6170
 30
0.0000
  0
SEQEND
  8
0
  0
POLYLINE
  8
16
 66
1
 10
0.0000
 20
0.0000
 30
0.0000
 40
2.8575
 41
2.8575
 70
0
  0
VERTEX
  8
16
 10
21.3360
 20
19.1883
 30
0.0000
 42
1.0000
  0
VERTEX
  8
16
 10
21.3360
 20
22.0458
 30
0.0000
  0
SEQEND
  8
0
  0
POLYLINE
  8
16
 66
1
 10
0.0000
 20
0.0000
 30
0.0000
 40
2.8575
 41
2.8575
 70
0
  0
VERTEX
  8
16
 10
12.4460
 20
22.0458
 30
0.0000
 42
1.0000
  0
VERTEX
  8
16
 10
12.4460
 20
19.1883
 30
0.0000
  0
SEQEND
  8
0
  0
POLYLINE
  8
16
 66
1
 10
0.0000
 20
0.0000
 30
0.0000
 40
5.7150
 41
5.7150
 70
0
  0
VERTEX
  8
16
 10
21.3360
 20
20.6170
 30
0.0000
  0
VERTEX
  8
16
 10
30.2260
 20
20.6170
 30
0.0000
  0
SEQEND
  8
0
  0
POLYLINE
  8
16
 66
1
 10
0.0000
 20
0.0000
 30
0.0000
 40
2.8575
 41
2.8575
 70
0
  0
VERTEX
  8
16
 10
30.2260
 20
19.1883
 30
0.0000
 42
1.0000
  0
VERTEX
  8
16
 10
30.2260
 20
22.0458
 30
0.0000
  0
SEQEND
  8
0
  0
POLYLINE
  8
16
 66
1
 10
0.0000
 20
0.0000
 30
0.0000
 40
2.8575
 41
2.8575
 70
0
  0
VERTEX
  8
16
 10
21.3360
 20
22.0458
 30
0.0000
 42
1.0000
  0
VERTEX
  8
16
 10
21.3360
 20
19.1883
 30
0.0000
  0
SEQEND
  8
0
  0
POLYLINE
  8
16
 66
1
 10
0.0000
 20
0.0000
 30
0.0000
 40
5.7150
 41
5.7150
 70
0
  0
VERTEX
  8
16
 10
30.2260
 20
20.6170
 30
0.0000
  0
VERTEX
  8
16
 10
34.2900
 20
20.6170
 30
0.0000
  0
SEQEND
  8
0
  0
POLYLINE
  8
16
 66
1
 10
0.0000
 20
0.0000
 30
0.0000
 40
2.8575
 41
2.8575
 70
0
  0
VERTEX
  8
16
 10
34.2900
 20
19.1883
 30
0.0000
 42
1.0000
  0
VERTEX
  8
16
 10
34.2900
 20
22.0458
 30
0.0000
  0
SEQEND
  8
0
  0
POLYLINE
  8
16
 66
1
 10
0.0000
 20
0.0000
 30
0.0000
 40
2.8575
 41
2.8575
 70
0
  0
VERTEX
  8
16
 10
30.2260
 20
22.0458
 30
0.0000
 42
1.0000
  0
VERTEX
  8
16
 10
30.2260
 20
19.1883
 30
0.0000
  0
SEQEND
  8
0
  0
POLYLINE
  8
16
 66
1
 10
0.0000
 20
0.0000
 30
0.0000
 40
5.7150
 41
5.7150
 70
0
  0
VERTEX
  8
16
 10
34.2900
 20
20.6170
 30
0.0000
  0
VERTEX
  8
16
 10
37.4650
 20
16.5100
 30
0.0000
  0
SEQEND
  8
0
  0
POLYLINE
  8
16
 66
1
 10
0.0000
 20
0.0000
 30
0.0000
 40
2.8575
 41
2.8575
 70
0
  0
VERTEX
  8
16
 10
36.3346
 20
15.6362
 30
0.0000
 42
1.0000
  0
VERTEX
  8
16
 10
38.5954
 20
17.3838
 30
0.0000
  0
SEQEND
  8
0
  0
POLYLINE
  8
16
 66
1
 10
0.0000
 20
0.0000
 30
0.0000
 40
2.8575
 41
2.8575
 70
0
  0
VERTEX
  8
16
 10
35.4204
 20
21.4908
 30
0.0000
 42
1.0000
  0
VERTEX
  8
16
 10
33.1596
 20
19.7432
 30
0.0000
  0
SEQEND
  8
0
  0
POLYLINE
  8
16
 66
1
 10
0.0000
 20
0.0000
 30
0.0000
 40
5.7150
 41
5.7150
 70
0
  0
VERTEX
  8
16
 10
37.4650
 20
16.5100
 30
0.0000
  0
VERTEX
  8
16
 10
37.4650
 20
10.7950
 30
0.0000
  0
SEQEND
  8
0
  0
POLYLINE
  8
16
 66
1
 10
0.0000
 20
0.0000
 30
0.0000
 40
2.8575
 41
2.8575
 70
0
  0
VERTEX
  8
16
 10
36.0363
 20
10.7950
 30
0.0000
 42
1.0000
  0
VERTEX
  8
16
 10
38.8938
 20
10.7950
 30
0.0000
  0
SEQEND
  8
0
  0
POLYLINE
  8
16
 66
1
 10
0.0000
 20
0.0000
 30
0.0000
 40
2.8575
 41
2.8575
 70
0
  0
VERTEX
  8
16
 10
38.8938
 20
16.5100
 30
0.0000
 42
1.0000
  0
VERTEX
  8
16
 10
36.0363
 20
16.5100
 30
0.0000
  0
SEQEND
  8
0
  0
POLYLINE
  8
16
 66
1
 10
0.0000
 20
0.0000
 30
0.0000
 40
5.7150
 41
5.7150
 70
0
  0
VERTEX
  8
16
 10
37.4650
 20
10.7950
 30
0.0000
  0
VERTEX
  8
16
 10
42.5450
 20
6.9850
 30
0.0000
  0
SEQEND
  8
0
  0
POLYLINE
  8
16
 66
1
 10
0.0000
 20
0.0000
 30
0.0000
 40
2.8575
 41
2.8575
 70
0
  0
VERTEX
  8
16
 10
41.6878
 20
5.8420
 30
0.0000
 42
1.0000
  0
VERTEX
  8
16
 10
43.4023
 20
8.1280
 30
0.0000
  0
SEQEND
  8
0
  0
POLYLINE
  8
16
 66
1
 10
0.0000
 20
0.0000
 30
0.0000
 40
2.8575
 41
2.8575
 70
0
  0
VERTEX
  8
16
 10
38.3223
 20
11.9380
 30
0.0000
 42
1.0000
  0
VERTEX
  8
16
 10
36.6078
 20
9.6520
 30
0.0000
  0
SEQEND
  8
0
  0
POLYLINE
  8
16
 66
1
 10
0.0000
 20
0.0000
 30
0.0000
 40
5.7150
 41
5.7150
 70
0
  0
VERTEX
  8
16
 10
42.5450
 20
6.9850
 30
0.0000
  0
VERTEX
  8
16
 10
43.8150
 20
5.0800
 30
0.0000
  0
SEQEND
  8
0
  0
POLYLINE
  8
16
 66
1
 10
0.0000
 20
0.0000
 30
0.0000
 40
2.8575
 41
2.8575
 70
0
  0
VERTEX
  8
16
 10
42.6262
 20
4.2875
 30
0.0000
 42
1.0000
  0
VERTEX
  8
16
 10
45.0038
 20
5.8725
 30
0.0000
  0
SEQEND
  8
0
  0
POLYLINE
  8
16
 66
1
 10
0.0000
 20
0.0000
 30
0.0000
 40
2.8575
 41
2.8575
 70
0
  0
VERTEX
  8
16
 10
43.7338
 20
7.7775
 30
0.0000
 42
1.0000
  0
VERTEX
  8
16
 10
41.3562
 20
6.1925
 30
0.0000
  0
SEQEND
  8
0
  0
POLYLINE
  8
16
 66
1
 10
0.0000
 20
0.0000
 30
0.0000
 40
3.8100
 41
3.8100
 70
0
  0
VERTEX
  8
16
 10
43.8150
 20
5.0800
 30
0.0000
  0
VERTEX
  8
16
 10
41.9354
 20
5.7404
 30
0.0000
  0
SEQEND
  8
0
  0
POLYLINE
  8
16
 66
1
 10
0.0000
 20
0.0000
 30
0.0000
 40
1.9050
 41
1.9050
 70
0
  0
VERTEX
  8
16
 10
42.2511
 20
6.6390
 30
0.0000
 42
1.0000
  0
VERTEX
  8
16
 10
41.6197
 20
4.8418
 30
0.0000
  0
SEQEND
  8
0
  0
POLYLINE
  8
16
 66
1
 10
0.0000
 20
0.0000
 30
0.0000
 40
1.9050
 41
1.9050
 70
0
  0
VERTEX
  8
16
 10
43.4993
 20
4.1814
 30
0.0000
 42
1.0000
  0
VERTEX
  8
16
 10
44.1307
 20
5.9786
 30
0.0000
  0
SEQEND
  8
0
  0
POLYLINE
  8
16
 66
1
 10
0.0000
 20
0.0000
 30
0.0000
 40
3.8100
 41
3.8100
 70
0
  0
VERTEX
  8
16
 10
41.9354
 20
5.7404
 30
0.0000
  0
VERTEX
  8
16
 10
41.6814
 20
3.5560
 30
0.0000
  0
SEQEND
  8
0
  0
POLYLINE
  8
16
 66
1
 10
0.0000
 20
0.0000
 30
0.0000
 40
1.9050
 41
1.9050
 70
0
  0
VERTEX
  8
16
 10
40.7353
 20
3.6660
 30
0.0000
 42
1.0000
  0
VERTEX
  8
16
 10
42.6275
 20
3.4460
 30
0.0000
  0
SEQEND
  8
0
  0
POLYLINE
  8
16
 66
1
 10
0.0000
 20
0.0000
 30
0.0000
 40
1.9050
 41
1.9050
 70
0
  0
VERTEX
  8
16
 10
42.8815
 20
5.6304
 30
0.0000
 42
1.0000
  0
VERTEX
  8
16
 10
40.9893
 20
5.8504
 30
0.0000
  0
SEQEND
  8
0
  0
POLYLINE
  8
16
 66
1
 10
0.0000
 20
0.0000
 30
0.0000
 40
3.8100
 41
3.8100
 70
0
  0
VERTEX
  8
16
 10
41.6814
 20
3.5560
 30
0.0000
  0
VERTEX
  8
16
 10
46.7106
 20
3.5560
 30
0.0000
  0
SEQEND
  8
0
  0
POLYLINE
  8
16
 66
1
 10
0.0000
 20
0.0000
 30
0.0000
 40
1.9050
 41
1.9050
 70
0
  0
VERTEX
  8
16
 10
46.7106
 20
2.6035
 30
0.0000
 42
1.0000
  0
VERTEX
  8
16
 10
46.7106
 20
4.5085
 30
0.0000
  0
SEQEND
  8
0
  0
POLYLINE
  8
16
 66
1
 10
0.0000
 20
0.0000
 30
0.0000
 40
1.9050
 41
1.9050
 70
0
  0
VERTEX
  8
16
 10
41.6814
 20
4.5085
 30
0.0000
 42
1.0000
  0
VERTEX
  8
16
 10
41.6814
 20
2.6035
 30
0.0000
  0
SEQEND
  8
0
  0
POLYLINE
  8
16
 66
1
 10
0.0000
 20
0.0000
 30
0.0000
 40
3.8100
 41
3.8100
 70
0
  0
VERTEX
  8
16
 10
16.2306
 20
3.5560
 30
0.0000
  0
VERTEX
  8
16
 10
21.3614
 20
3.5560
 30
0.0000
  0
SEQEND
  8
0
  0
POLYLINE
  8
16
 66
1
 10
0.0000
 20
0.0000
 30
0.0000
 40
1.9050
 41
1.9050
 70
0
  0
VERTEX
  8
16
 10
21.3614
 20
2.6035
 30
0.0000
 42
1.0000
  0
VERTEX
  8
16
 10
21.3614
 20
4.5085
 30
0.0000
  0
SEQEND
  8
0
  0
POLYLINE
  8
16
 66
1
 10
0.0000
 20
0.0000
 30
0.0000
 40
1.9050
 41
1.9050
 70
0
  0
VERTEX
  8
16
 10
16.2306
 20
4.5085
 30
0.0000
 42
1.0000
  0
VERTEX
  8
16
 10
16.2306
 20
2.6035
 30
0.0000
  0
SEQEND
  8
0
  0
POLYLINE
  8
16
 66
1
 10
0.0000
 20
0.0000
 30
0.0000
 40
3.8100
 41
3.8100
 70
0
  0
VERTEX
  8
16
 10
21.3614
 20
3.5560
 30
0.0000
  0
VERTEX
  8
16
 10
26.3906
 20
3.5560
 30
0.0000
  0
SEQEND
  8
0
  0
POLYLINE
  8
16
 66
1
 10
0.0000
 20
0.0000
 30
0.0000
 40
1.9050
 41
1.9050
 70
0
  0
VERTEX
  8
16
 10
26.3906
 20
2.6035
 30
0.0000
 42
1.0000
  0
VERTEX
  8
16
 10
26.3906
 20
4.5085
 30
0.0000
  0
SEQEND
  8
0
  0
POLYLINE
  8
16
 66
1
 10
0.0000
 20
0.0000
 30
0.0000
 40
1.9050
 41
1.9050
 70
0
  0
VERTEX
  8
16
 10
21.3614
 20
4.5085
 30
0.0000
 42
1.0000
  0
VERTEX
  8
16
 10
21.3614
 20
2.6035
 30
0.0000
  0
SEQEND
  8
0
  0
POLYLINE
  8
16
 66
1
 10
0.0000
 20
0.0000
 30
0.0000
 40
3.8100
 41
3.8100
 70
0
  0
VERTEX
  8
16
 10
26.3906
 20
3.5560
 30
0.0000
  0
VERTEX
  8
16
 10
31.5214
 20
3.5560
 30
0.0000
  0
SEQEND
  8
0
  0
POLYLINE
  8
16
 66
1
 10
0.0000
 20
0.0000
 30
0.0000
 40
1.9050
 41
1.9050
 70
0
  0
VERTEX
  8
16
 10
31.5214
 20
2.6035
 30
0.0000
 42
1.0000
  0
VERTEX
  8
16
 10
31.5214
 20
4.5085
 30
0.0000
  0
SEQEND
  8
0
  0
POLYLINE
  8
16
 66
1
 10
0.0000
 20
0.0000
 30
0.0000
 40
1.9050
 41
1.9050
 70
0
  0
VERTEX
  8
16
 10
26.3906
 20
4.5085
 30
0.0000
 42
1.0000
  0
VERTEX
  8
16
 10
26.3906
 20
2.6035
 30
0.0000
  0
SEQEND
  8
0
  0
POLYLINE
  8
16
 66
1
 10
0.0000
 20
0.0000
 30
0.0000
 40
3.8100
 41
3.8100
 70
0
  0
VERTEX
  8
16
 10
31.5214
 20
3.5560
 30
0.0000
  0
VERTEX
  8
16
 10
36.5506
 20
3.5560
 30
0.0000
  0
SEQEND
  8
0
  0
POLYLINE
  8
16
 66
1
 10
0.0000
 20
0.0000
 30
0.0000
 40
1.9050
 41
1.9050
 70
0
  0
VERTEX
  8
16
 10
36.5506
 20
2.6035
 30
0.0000
 42
1.0000
  0
VERTEX
  8
16
 10
36.5506
 20
4.5085
 30
0.0000
  0
SEQEND
  8
0
  0
POLYLINE
  8
16
 66
1
 10
0.0000
 20
0.0000
 30
0.0000
 40
1.9050
 41
1.9050
 70
0
  0
VERTEX
  8
16
 10
31.5214
 20
4.5085
 30
0.0000
 42
1.0000
  0
VERTEX
  8
16
 10
31.5214
 20
2.6035
 30
0.0000
  0
SEQEND
  8
0
  0
POLYLINE
  8
16
 66
1
 10
0.0000
 20
0.0000
 30
0.0000
 40
5.7150
 41
5.7150
 70
0
  0
VERTEX
  8
16
 10
12.4460
 20
13.6795
 30
0.0000
  0
VERTEX
  8
16
 10
21.3360
 20
13.6795
 30
0.0000
  0
SEQEND
  8
0
  0
POLYLINE
  8
16
 66
1
 10
0.0000
 20
0.0000
 30
0.0000
 40
2.8575
 41
2.8575
 70
0
  0
VERTEX
  8
16
 10
21.3360
 20
12.2508
 30
0.0000
 42
1.0000
  0
VERTEX
  8
16
 10
21.3360
 20
15.1083
 30
0.0000
  0
SEQEND
  8
0
  0
POLYLINE
  8
16
 66
1
 10
0.0000
 20
0.0000
 30
0.0000
 40
2.8575
 41
2.8575
 70
0
  0
VERTEX
  8
16
 10
12.4460
 20
15.1083
 30
0.0000
 42
1.0000
  0
VERTEX
  8
16
 10
12.4460
 20
12.2508
 30
0.0000
  0
SEQEND
  8
0
  0
POLYLINE
  8
16
 66
1
 10
0.0000
 20
0.0000
 30
0.0000
 40
5.7150
 41
5.7150
 70
0
  0
VERTEX
  8
16
 10
21.3360
 20
13.6795
 30
0.0000
  0
VERTEX
  8
16
 10
30.2260
 20
13.6795
 30
0.0000
  0
SEQEND
  8
0
  0
POLYLINE
  8
16
 66
1
 10
0.0000
 20
0.0000
 30
0.0000
 40
2.8575
 41
2.8575
 70
0
  0
VERTEX
  8
16
 10
30.2260
 20
12.2508
 30
0.0000
 42
1.0000
  0
VERTEX
  8
16
 10
30.2260
 20
15.1083
 30
0.0000
  0
SEQEND
  8
0
  0
POLYLINE
  8
16
 66
1
 10
0.0000
 20
0.0000
 30
0.0000
 40
2.8575
 41
2.8575
 70
0
  0
VERTEX
  8
16
 10
21.3360
 20
15.1083
 30
0.0000
 42
1.0000
  0
VERTEX
  8
16
 10
21.3360
 20
12.2508
 30
0.0000
  0
SEQEND
  8
0
  0
POLYLINE
  8
16
 66
1
 10
0.0000
 20
0.0000
 30
0.0000
 40
4.4450
 41
4.4450
 70
0
  0
VERTEX
  8
16
 10
11.2014
 20
3.5560
 30
0.0000
  0
VERTEX
  8
16
 10
11.2014
 20
12.7000
 30
0.0000
  0
SEQEND
  8
0
  0
POLYLINE
  8
16
 66
1
 10
0.0000
 20
0.0000
 30
0.0000
 40
2.2225
 41
2.2225
 70
0
  0
VERTEX
  8
16
 10
12.3127
 20
12.7000
 30
0.0000
 42
1.0000
  0
VERTEX
  8
16
 10
10.0902
 20
12.7000
 30
0.0000
  0
SEQEND
  8
0
  0
POLYLINE
  8
16
 66
1
 10
0.0000
 20
0.0000
 30
0.0000
 40
2.2225
 41
2.2225
 70
0
  0
VERTEX
  8
16
 10
10.0902
 20
3.5560
 30
0.0000
 42
1.0000
  0
VERTEX
  8
16
 10
12.3127
 20
3.5560
 30
0.0000
  0
SEQEND
  8
0
  0
POLYLINE
  8
16
 66
1
 10
0.0000
 20
0.0000
 30
0.0000
 40
4.4450
 41
4.4450
 70
0
  0
VERTEX
  8
16
 10
11.2014
 20
12.7000
 30
0.0000
  0
VERTEX
  8
16
 10
11.7205
 20
13.0445
 30
0.0000
  0
SEQEND
  8
0
  0
POLYLINE
  8
16
 66
1
 10
0.0000
 20
0.0000
 30
0.0000
 40
2.2225
 41
2.2225
 70
0
  0
VERTEX
  8
16
 10
12.3350
 20
12.1186
 30
0.0000
 42
1.0000
  0
VERTEX
  8
16
 10
11.1060
 20
13.9704
 30
0.0000
  0
SEQEND
  8
0
  0
POLYLINE
  8
16
 66
1
 10
0.0000
 20
0.0000
 30
0.0000
 40
2.2225
 41
2.2225
 70
0
  0
VERTEX
  8
16
 10
10.5869
 20
13.6259
 30
0.0000
 42
1.0000
  0
VERTEX
  8
16
 10
11.8159
 20
11.7741
 30
0.0000
  0
SEQEND
  8
0
  0
POLYLINE
  8
16
 66
1
 10
0.0000
 20
0.0000
 30
0.0000
 40
5.0800
 41
5.0800
 70
0
  0
VERTEX
  8
16
 10
11.7205
 20
13.0445
 30
0.0000
  0
VERTEX
  8
16
 10
12.4460
 20
13.6795
 30
0.0000
  0
SEQEND
  8
0
  0
POLYLINE
  8
16
 66
1
 10
0.0000
 20
0.0000
 30
0.0000
 40
2.5400
 41
2.5400
 70
0
  0
VERTEX
  8
16
 10
13.2824
 20
12.7239
 30
0.0000
 42
1.0000
  0
VERTEX
  8
16
 10
11.6096
 20
14.6351
 30
0.0000
  0
SEQEND
  8
0
  0
POLYLINE
  8
16
 66
1
 10
0.0000
 20
0.0000
 30
0.0000
 40
2.5400
 41
2.5400
 70
0
  0
VERTEX
  8
16
 10
10.8841
 20
14.0001
 30
0.0000
 42
1.0000
  0
VERTEX
  8
16
 10
12.5569
 20
12.0889
 30
0.0000
  0
SEQEND
  8
0
  0
POLYLINE
  8
16
 66
1
 10
0.0000
 20
0.0000
 30
0.0000
 40
1.2700
 41
1.2700
 70
0
  0
VERTEX
  8
16
 10
42.9260
 20
22.2250
 30
0.0000
  0
VERTEX
  8
16
 10
49.9110
 20
22.2250
 30
0.0000
  0
SEQEND
  8
0
  0
POLYLINE
  8
16
 66
1
 10
0.0000
 20
0.0000
 30
0.0000
 40
0.6350
 41
0.6350
 70
0
  0
VERTEX
  8
16
 10
49.9110
 20
21.9075
 30
0.0000
 42
1.0000
  0
VERTEX
  8
16
 10
49.9110
 20
22.5425
 30
0.0000
  0
SEQEND
  8
0
  0
POLYLINE
  8
16
 66
1
 10
0.0000
 20
0.0000
 30
0.0000
 40
0.6350
 41
0.6350
 70
0
  0
VERTEX
  8
16
 10
42.9260
 20
22.5425
 30
0.0000
 42
1.0000
  0
VERTEX
  8
16
 10
42.9260
 20
21.9075
 30
0.0000
  0
SEQEND
  8
0
  0
POLYLINE
  8
16
 66
1
 10
0.0000
 20
0.0000
 30
0.0000
 40
1.2700
 41
1.2700
 70
0
  0
VERTEX
  8
16
 10
49.9110
 20
22.2250
 30
0.0000
  0
VERTEX
  8
16
 10
56.8960
 20
22.2250
 30
0.0000
  0
SEQEND
  8
0
  0
POLYLINE
  8
16
 66
1
 10
0.0000
 20
0.0000
 30
0.0000
 40
0.6350
 41
0.6350
 70
0
  0
VERTEX
  8
16
 10
56.8960
 20
21.9075
 30
0.0000
 42
1.0000
  0
VERTEX
  8
16
 10
56.8960
 20
22.5425
 30
0.0000
  0
SEQEND
  8
0
  0
POLYLINE
  8
16
 66
1
 10
0.0000
 20
0.0000
 30
0.0000
 40
0.6350
 41
0.6350
 70
0
  0
VERTEX
  8
16
 10
49.9110
 20
22.5425
 30
0.0000
 42
1.0000
  0
VERTEX
  8
16
 10
49.9110
 20
21.9075
 30
0.0000
  0
SEQEND
  8
0
  0
POLYLINE
  8
16
 66
1
 10
0.0000
 20
0.0000
 30
0.0000
 40
1.2700
 41
1.2700
 70
0
  0
VERTEX
  8
16
 10
42.9260
 20
19.6850
 30
0.0000
  0
VERTEX
  8
16
 10
49.9110
 20
19.6850
 30
0.0000
  0
SEQEND
  8
0
  0
POLYLINE
  8
16
 66
1
 10
0.0000
 20
0.0000
 30
0.0000
 40
0.6350
 41
0.6350
 70
0
  0
VERTEX
  8
16
 10
49.9110
 20
19.3675
 30
0.0000
 42
1.0000
  0
VERTEX
  8
16
 10
49.9110
 20
20.0025
 30
0.0000
  0
SEQEND
  8
0
  0
POLYLINE
  8
16
 66
1
 10
0.0000
 20
0.0000
 30
0.0000
 40
0.6350
 41
0.6350
 70
0
  0
VERTEX
  8
16
 10
42.9260
 20
20.0025
 30
0.0000
 42
1.0000
  0
VERTEX
  8
16
 10
42.9260
 20
19.3675
 30
0.0000
  0
SEQEND
  8
0
  0
POLYLINE
  8
16
 66
1
 10
0.0000
 20
0.0000
 30
0.0000
 40
1.2700
 41
1.2700
 70
0
  0
VERTEX
  8
16
 10
49.9110
 20
19.6850
 30
0.0000
  0
VERTEX
  8
16
 10
56.8960
 20
19.6850
 30
0.0000
  0
SEQEND
  8
0
  0
POLYLINE
  8
16
 66
1
 10
0.0000
 20
0.0000
 30
0.0000
 40
0.6350
 41
0.6350
 70
0
  0
VERTEX
  8
16
 10
56.8960
 20
19.3675
 30
0.0000
 42
1.0000
  0
VERTEX
  8
16
 10
56.8960
 20
20.0025
 30
0.0000
  0
SEQEND
  8
0
  0
POLYLINE
  8
16
 66
1
 10
0.0000
 20
0.0000
 30
0.0000
 40
0.6350
 41
0.6350
 70
0
  0
VERTEX
  8
16
 10
49.9110
 20
20.0025
 30
0.0000
 42
1.0000
  0
VERTEX
  8
16
 10
49.9110
 20
19.3675
 30
0.0000
  0
SEQEND
  8
0
  0
POLYLINE
  8
16
 66
1
 10
0.0000
 20
0.0000
 30
0.0000
 40
1.2700
 41
1.2700
 70
0
  0
VERTEX
  8
16
 10
42.9260
 20
17.1450
 30
0.0000
  0
VERTEX
  8
16
 10
49.9110
 20
17.1450
 30
0.0000
  0
SEQEND
  8
0
  0
POLYLINE
  8
16
 66
1
 10
0.0000
 20
0.0000
 30
0.0000
 40
0.6350
 41
0.6350
 70
0
  0
VERTEX
  8
16
 10
49.9110
 20
16.8275
 30
0.0000
 42
1.0000
  0
VERTEX
  8
16
 10
49.9110
 20
17.4625
 30
0.0000
  0
SEQEND
  8
0
  0
POLYLINE
  8
16
 66
1
 10
0.0000
 20
0.0000
 30
0.0000
 40
0.6350
 41
0.6350
 70
0
  0
VERTEX
  8
16
 10
42.9260
 20
17.4625
 30
0.0000
 42
1.0000
  0
VERTEX
  8
16
 10
42.9260
 20
16.8275
 30
0.0000
  0
SEQEND
  8
0
  0
POLYLINE
  8
16
 66
1
 10
0.0000
 20
0.0000
 30
0.0000
 40
1.2700
 41
1.2700
 70
0
  0
VERTEX
  8
16
 10
49.9110
 20
17.1450
 30
0.0000
  0
VERTEX
  8
16
 10
56.8960
 20
17.1450
 30
0.0000
  0
SEQEND
  8
0
  0
POLYLINE
  8
16
 66
1
 10
0.0000
 20
0.0000
 30
0.0000
 40
0.6350
 41
0.6350
 70
0
  0
VERTEX
  8
16
 10
56.8960
 20
16.8275
 30
0.0000
 42
1.0000
  0
VERTEX
  8
16
 10
56.8960
 20
17.4625
 30
0.0000
  0
SEQEND
  8
0
  0
POLYLINE
  8
16
 66
1
 10
0.0000
 20
0.0000
 30
0.0000
 40
0.6350
 41
0.6350
 70
0
  0
VERTEX
  8
16
 10
49.9110
 20
17.4625
 30
0.0000
 42
1.0000
  0
VERTEX
  8
16
 10
49.9110
 20
16.8275
 30
0.0000
  0
SEQEND
  8
0
  0
POLYLINE
  8
16
 66
1
 10
0.0000
 20
0.0000
 30
0.0000
 40
1.2700
 41
1.2700
 70
0
  0
VERTEX
  8
16
 10
42.9260
 20
14.6050
 30
0.0000
  0
VERTEX
  8
16
 10
49.9110
 20
14.6050
 30
0.0000
  0
SEQEND
  8
0
  0
POLYLINE
  8
16
 66
1
 10
0.0000
 20
0.0000
 30
0.0000
 40
0.6350
 41
0.6350
 70
0
  0
VERTEX
  8
16
 10
49.9110
 20
14.2875
 30
0.0000
 42
1.0000
  0
VERTEX
  8
16
 10
49.9110
 20
14.9225
 30
0.0000
  0
SEQEND
  8
0
  0
POLYLINE
  8
16
 66
1
 10
0.0000
 20
0.0000
 30
0.0000
 40
0.6350
 41
0.6350
 70
0
  0
VERTEX
  8
16
 10
42.9260
 20
14.9225
 30
0.0000
 42
1.0000
  0
VERTEX
  8
16
 10
42.9260
 20
14.2875
 30
0.0000
  0
SEQEND
  8
0
  0
POLYLINE
  8
16
 66
1
 10
0.0000
 20
0.0000
 30
0.0000
 40
1.2700
 41
1.2700
 70
0
  0
VERTEX
  8
16
 10
49.9110
 20
14.6050
 30
0.0000
  0
VERTEX
  8
16
 10
56.8960
 20
14.6050
 30
0.0000
  0
SEQEND
  8
0
  0
POLYLINE
  8
16
 66
1
 10
0.0000
 20
0.0000
 30
0.0000
 40
0.6350
 41
0.6350
 70
0
  0
VERTEX
  8
16
 10
56.8960
 20
14.2875
 30
0.0000
 42
1.0000
  0
VERTEX
  8
16
 10
56.8960
 20
14.9225
 30
0.0000
  0
SEQEND
  8
0
  0
POLYLINE
  8
16
 66
1
 10
0.0000
 20
0.0000
 30
0.0000
 40
0.6350
 41
0.6350
 70
0
  0
VERTEX
  8
16
 10
49.9110
 20
14.9225
 30
0.0000
 42
1.0000
  0
VERTEX
  8
16
 10
49.9110
 20
14.2875
 30
0.0000
  0
SEQEND
  8
0
  0
ENDSEC
  0
EOF
